<svg width="22" height="24" viewBox="0 0 22 24" fill="none" xmlns="http://www.w3.org/2000/svg">
<path fill-rule="evenodd" clip-rule="evenodd" d="M0.634531 4.7895C0.906431 4.05357 1.26485 3.42934 1.85191 2.80512C2.43896 2.18089 3.02602 1.79979 3.71813 1.51067C4.38552 1.2347 5.15179 1.05072 6.27647 0.991581C7.40115 0.939014 7.75957 0.925873 10.6207 0.925873C13.4818 0.925873 13.8403 0.939014 14.9649 0.991581C16.0834 1.05072 16.8497 1.2347 17.5233 1.51724C18.2154 1.80636 18.8024 2.18746 19.3895 2.81169C19.9766 3.43591 20.335 4.06014 20.6069 4.79607C20.8664 5.50571 21.0394 6.32049 21.0951 7.5098C21.1445 8.70569 21.1569 9.08679 21.1569 12.1291C21.1569 15.1713 21.1445 15.5524 21.0951 16.7483C21.0394 17.9442 20.8664 18.759 20.6007 19.4686C20.3288 20.2046 19.9704 20.8288 19.3833 21.453C18.7963 22.0772 18.2092 22.4583 17.5171 22.7475C16.8497 23.0234 16.0834 23.214 14.9588 23.2666C13.8341 23.3191 13.4757 23.3323 10.6145 23.3323C7.75339 23.3323 7.39497 23.3191 6.27029 23.2666C5.15179 23.214 4.38553 23.0234 3.71195 22.7475C3.01984 22.4583 2.43278 22.0772 1.84572 21.453C1.25867 20.8288 0.900251 20.2046 0.628349 19.4686C0.368809 18.759 0.189602 17.9442 0.140165 16.7483C0.0907288 15.5524 0.0783691 15.1713 0.0783691 12.1291C0.0783691 9.08679 0.0907288 8.70569 0.140165 7.5098C0.195782 6.32049 0.374989 5.50571 0.634531 4.7895ZM10.6207 17.8851C13.6116 17.8851 16.034 15.3093 16.034 12.1291C16.034 8.9488 13.6116 6.37306 10.6207 6.37306C7.6298 6.37306 5.20741 8.9488 5.20741 12.1291C5.20741 15.3093 7.6298 17.8851 10.6207 17.8851ZM4.99112 7.49666C5.68941 7.49666 6.25793 6.89215 6.25793 6.14965C6.25793 5.40715 5.68941 4.80264 4.99112 4.80264C4.29283 4.80264 3.72431 5.40715 3.72431 6.14965C3.73049 6.89215 4.29283 7.49666 4.99112 7.49666ZM7.10453 12.1291C7.10453 14.1923 8.67414 15.8613 10.6145 15.8613C12.5549 15.8613 14.1245 14.1923 14.1245 12.1291C14.1245 10.0658 12.5549 8.39686 10.6145 8.39686C8.68032 8.39686 7.10453 10.0658 7.10453 12.1291Z" fill="#E5E5E5"/>
</svg>
