<svg width="22" height="27" viewBox="0 0 22 27" fill="none" xmlns="http://www.w3.org/2000/svg">
<path fill-rule="evenodd" clip-rule="evenodd" d="M20.8549 6.19526L21.3922 6.24144V11.6069L20.8477 11.6685C19.4864 11.807 18.1466 11.4144 17.0218 10.7678C16.5131 10.4753 16.0474 10.1135 15.6246 9.69779V18.2732C15.6246 22.8073 12.1928 26.4946 7.97276 26.4946C3.7456 26.4946 0.313721 22.7996 0.313721 18.2655C0.313721 13.7392 3.73844 10.0519 7.94411 10.0519C8.10889 10.0519 8.27368 10.0596 8.43847 10.0673L8.98298 10.1058V15.1402L8.331 15.0555C8.28801 15.0478 8.25219 15.0478 8.2092 15.0401C8.11606 15.0247 8.03008 15.017 7.9656 15.017C6.29623 15.017 4.9421 16.4796 4.9421 18.2655C4.9421 20.0591 6.30339 21.514 7.9656 21.514C8.78237 21.514 9.59198 21.1676 10.1938 20.5672C10.8028 19.9591 11.1396 19.1585 11.1396 18.304L11.1754 0.237091H15.6103L15.6676 0.799037C15.9542 3.70884 18.1323 5.97971 20.8549 6.19526Z" fill="#E5E5E5"/>
</svg>
