<svg width="28" height="30" viewBox="0 0 28 30" fill="none" xmlns="http://www.w3.org/2000/svg">
<path d="M28 14.8826C28 11.1034 26.6861 7.57065 24.4448 4.94163C21.8943 2.1483 18.2618 0.340851 14.2428 0.340851C6.51409 0.340851 0.176514 7.07771 0.176514 15.3755C0.176514 19.1548 1.4904 22.6875 3.73174 25.3165C6.28222 28.192 9.91473 29.9173 13.9337 29.9173C21.6624 29.9173 28 23.1804 28 14.8826Z" fill="white"/>
<path d="M6.20483 22.8518L12.7743 29.8352C13.1607 29.8352 13.5472 29.9173 13.9336 29.9173C21.6624 29.9173 28 23.1805 28 14.8826C28 14.6362 28 14.3897 28 14.1432L23.2082 9.0495L6.20483 22.8518Z" fill="white"/>
<path d="M26.8407 14.9648C26.8407 11.432 25.6041 8.31007 23.5946 5.84536C21.276 3.21635 17.9526 1.57321 14.2428 1.57321C7.13238 1.57321 1.33582 7.73497 1.33582 15.2934C1.33582 18.8261 2.57242 21.9481 4.58189 24.4128C6.9778 27.0418 10.3012 28.6849 13.9337 28.6849C21.0441 28.6849 26.8407 22.5232 26.8407 14.9648Z" fill="#71AC51"/>
<path d="M10.3784 20.5514L10.6102 20.7157C11.6923 21.4551 12.9289 21.7838 14.2428 21.7838C17.9526 21.7838 21.0441 18.5797 21.0441 14.554C21.0441 10.5283 17.9526 7.32418 14.1655 7.32418C10.3784 7.32418 7.36415 10.5283 7.36415 14.554C7.36415 16.1971 7.82788 17.6759 8.83262 18.9904L8.98719 19.2369L8.67804 21.1265L10.3784 20.5514ZM14.1655 23.0161C12.7743 23.0161 11.3831 22.6053 10.2238 21.8659L7.13229 23.0161L7.75059 19.4834C6.74585 18.0046 6.20483 16.2793 6.20483 14.4718C6.20483 9.87104 9.76007 6.09183 14.1655 6.09183C18.5709 6.09183 22.1261 9.87104 22.1261 14.554C22.1261 19.2369 18.5709 23.0161 14.1655 23.0161Z" fill="white"/>
<path d="M10.1465 11.3499C10.1465 11.3499 10.6103 10.4462 10.9967 10.4462C11.3831 10.364 11.8469 10.364 12.0015 10.6926C12.156 10.9391 12.697 12.5001 12.697 12.5001C12.697 12.5001 12.7743 12.7465 12.6198 12.993C12.4652 13.2395 12.0787 13.6503 12.0787 13.6503C12.0787 13.6503 11.8469 13.8967 12.0787 14.2254C12.3106 14.4718 12.5425 15.0469 13.2381 15.7042C13.8564 16.3614 15.093 16.8544 15.093 16.8544C15.093 16.8544 15.2476 16.8544 15.4021 16.7722C15.4794 16.6901 16.0977 15.8685 16.0977 15.8685C16.0977 15.8685 16.2523 15.622 16.6387 15.7863C16.9479 15.9507 18.3391 16.6901 18.3391 16.6901C18.3391 16.6901 18.4937 16.7722 18.4937 17.0187C18.4937 17.2652 18.4164 17.9224 18.1845 18.0867C17.9526 18.3332 17.4116 18.9905 16.5615 18.9905C15.7113 18.9905 13.6245 18.251 12.4652 17.0187C11.3831 15.8685 10.3784 14.6362 10.1465 13.5681C9.83738 12.2536 9.83738 11.7607 10.1465 11.3499Z" fill="white"/>
</svg>
