<svg width="26" height="20" viewBox="0 0 26 20" fill="none" xmlns="http://www.w3.org/2000/svg">
<path fill-rule="evenodd" clip-rule="evenodd" d="M23.9203 1.91524C22.9608 0.848252 21.8907 0.840406 21.3962 0.785488C17.8756 0.510895 12.5912 0.510895 12.5912 0.510895H12.5838C12.5838 0.510895 7.29935 0.510895 3.77883 0.777642C3.28434 0.840406 2.20678 0.848252 1.25469 1.91524C0.494496 2.72333 0.250938 4.56702 0.250938 4.56702C0.250938 4.56702 0 6.73238 0 8.89774V10.9297C0 13.0951 0.250938 15.2604 0.250938 15.2604C0.250938 15.2604 0.494496 17.1041 1.25469 17.9201C2.21416 18.9871 3.46885 18.9557 4.02977 19.0655C6.04465 19.2695 12.5912 19.3323 12.5912 19.3323C12.5912 19.3323 17.883 19.3244 21.4035 19.0498C21.898 18.9871 22.9682 18.9792 23.9277 17.9201C24.6805 17.112 24.9314 15.2604 24.9314 15.2604C24.9314 15.2604 25.1824 13.0951 25.1824 10.9297V8.89774C25.1824 6.73238 24.9314 4.56702 24.9314 4.56702C24.9314 4.56702 24.6731 2.72333 23.9203 1.91524ZM9.98586 13.3932V5.86938L16.7907 9.64306L9.98586 13.3932Z" fill="#E5E5E5"/>
</svg>
